<?xml version='1.0' encoding='utf-8'?>
<svg xmlns="http://www.w3.org/2000/svg" viewBox="0 0 69.561 106.31"> <g transform="matrix(-.80789 .09084 -.01984 .80056 407.19 -338.81)"> <path d="m426.1 393.97c-0.3586 2.0728-0.22757 6.9741-0.29365 8.2225 1.9896 2.1295 6.9931-0.35719 8.8098 1.1746s2.4687 5.4292 1.4683 7.0479c-0.41309-0.43692-2.1256 1.6092-4.6986 2.3493-2.8453 0.81842-7.9135-1.6749-11.159-0.88098s-7.5812 3.3949-9.3972 5.8732-2.1411 3.6706-2.3493 9.1035 3.1686 19.383 4.6986 26.43 2.427 16.823 5.2859 20.556 5.6394 3.947 8.8099 4.9922 9.268 0.8044 12.04 1.4683 4.4783 2.9484 6.4606 2.3493 3.6682-3.108 4.4049-4.4049c1.2847-0.97556 3.6143 1.9836 5.5796 2.3493s3.1541-0.26474 7.0479-2.3493 9.8153-11.134 12.334-16.151 4.0943-10.24 4.6986-16.445-0.01118-19.039-2.0556-24.374-5.2486-9.3866-8.2225-10.865-6.4102-0.49716-8.5162 0-3.8599-0.55977-5.2859-0.88099c-1.1677-0.26304-5.3794-1.3236-8.8099-1.4683-2.0374-1.9747-1.8174-5.4493-3.5239-7.9289s-3.6034-5.9266-6.4606-7.0479-10.495-1.2602-10.866 0.88099z" fill="#1a8025" fill-rule="evenodd" stroke="#00582a" stroke-linejoin="round" stroke-width="4.2336"/> <path d="m433.23 414.1c-6.4251 4.8428-10.071 16.154-10.071 32.294 0 17.912 11.176 30.088 19.688 32.438-14.335-18.736-15.639-26.57-14.974-36.688s2.3211-20.295 5.3575-28.044z" fill="#00652b"/> <path d="m448.88 411.21c7.1869 3.6171 12.795 14.095 15.678 29.975 3.2001 17.624-5.6209 31.601-13.576 35.433 6.0584-21.877 6.8226-29.23 5.2424-39.066-1.5734-9.7945-2.9728-19.26-7.3448-26.342z" fill="#00652b"/> <path d="m413.75 439.17c-5.6287-10.871-0.72797-28.605 15.338-22.739-7.5643 1.7261-11.177 8.2407-15.338 22.739z" fill="#fce94f" opacity=".34351"/> <path d="m434.81 417.98c-1.6916-3.2119 9.8934-6.6177 13.262-3.8316s0.64873 15.034-1.4189 15.271c-1.5481 0.1777-10.271-8.4547-11.843-11.439z" fill="#fce94f" fill-rule="evenodd" opacity=".34351"/> <path d="m427.57 393.38c-1.375 1.4289-2.2067 6.6642-0.58732 8.2225s5.8458-1.4712 7.9289 0 1.4504 10.047 3.5239 8.5162c2.2051-1.628 4.3294-1.1037 6.7542-0.88099s-3.766-11.688-6.1669-13.802-4.1279-1.759-5.8732-2.0556-4.2046-1.4289-5.5796 0z" fill="#4e9a06" fill-rule="evenodd"/> <path d="m426.98 399.55s4.6843 1.307 7.9289-1.4683c2.93-2.5063 5.2859 10.278 5.2859 10.278" fill="none" stroke="#2d8f20" stroke-width="3.2375"/> </g> </svg>