<?xml version='1.0' encoding='utf-8'?>
<svg xmlns="http://www.w3.org/2000/svg" enable-background="new 0 0 2000 2000" version="1.1" viewBox="0 0 2e3 2e3"> <style type="text/css">.st0{fill:#CB343A;} .st1{fill:#9B262A;} .st2{fill:#20543F;} .st3{fill:#14372B;} .st4{fill:#E89896;} .st5{fill:#E89897;} .st6{fill:#E79795;} .st7{fill:#E79794;} .st8{fill:#7D3A36;}</style> <path class="st0" d="m731.31 834.6c32.95 0.05 56.83 16.63 76.27 41.58 24.02 30.83 47.59 62.04 72.5 92.15 44.69 54.03 95.99 100.79 156.26 137.18 31.13 18.79 63.94 34.02 99.17 43.08 16.22 4.17 33.19 5.52 49.85 7.88 38.49 5.45 76.93 10.71 115.95 11.85 47.71 1.39 94.77-0.08 140.55-15.59 13.19-4.47 27.02-4.24 40.47 0.33 15.72 5.35 21.31 15.38 16.65 31.42-1.98 6.81-5.43 13.18-8.22 19.76-4.1 0.94-8.22 1.82-12.31 2.81-28.76 6.96-54.99 20.09-81.59 32.55-21.26 9.95-42.91 19.51-65.24 26.58-20.57 6.51-42.15 10.08-63.48 13.81-15.59 2.73-31.49 4.8-47.28 5.03-21.02 0.3-42.15-0.67-63.1-2.57-20.88-1.9-41.91-4.26-62.3-8.92-24.17-5.51-47.81-13.42-71.53-20.77-32.58-10.11-64.53-21.94-95.39-36.57-3.86-1.83-7.85-3.37-11.78-5.05 6.92 11.21 16.08 19.59 26.91 25.95 14.51 8.53 29.41 16.38 43.91 24.91 6.87 4.04 14.64 7.41 18.45 16.34-2.1-0.1-3.48 0.13-4.64-0.28-19.39-6.9-39.07-13.14-58.05-21.04-22.56-9.38-44.52-20.18-66.72-30.4-27.3-12.56-49.44-31.12-66.3-56.13-15.18-22.51-31.12-44.51-51.44-62.8-12.65-11.39-26.21-21.78-38.52-33.51-24.52-23.37-48.31-47.56-67.17-75.9-10.04-15.08-18.47-31.19-21.68-49.41-1.15-6.51-2.09-13.06-3.12-19.6 1.87-1.09 3.75-2.14 5.6-3.27 7.12-4.37 14.23-8.77 21.34-13.16 3.42-3.29 7.83-6.03 10.04-10 4.46-8 7.4-16.83 11.56-25.02 9.37-18.45 22.59-32.68 43.44-38.33 3.81-1.03 7.3-3.23 10.94-4.89zm141.1 184.33c-3.77-10.03-6.9-20.36-11.42-30.04-13.57-29.06-31.9-55.26-50.94-80.85-12.57-16.9-28.19-30.86-47.52-40.02-6.43-3.05-13.2-5.17-19.63 0.1-6.28 5.14-8.05 12.22-5.73 19.49 3.45 10.82 6.7 22.06 12.35 31.76 17.82 30.59 41.68 56.37 68.57 79.09 12.61 10.65 26.92 19.37 40.9 28.28 6.42 4.08 12.23 0.07 13.42-7.81zm25.69 33.47c-4.54 10.19-2 18.16 1.74 25.61 11.05 22.02 28.32 38.05 49.94 49.33 5.25 2.74 11.38 4.23 17.29 5.16 9.05 1.44 13.68-3.07 13.28-12.22-0.45-10.4-4.56-19.85-12.52-25.98-14.17-10.9-29.11-20.87-44.29-30.34-7.67-4.77-16.55-7.6-25.44-11.56zm254.63 148.1c3.63-0.39 8.17-0.47 12.49-1.49 3.06-0.72 5.81-2.72 8.7-4.16-2.37-2.4-4.33-5.84-7.2-7-9.75-3.95-19.8-7.18-29.79-10.52-25.69-8.58-52.71-13.39-76.49-27.38-3.01-1.77-6.83-3.27-10.16-3.07-3.72 0.22-8.62 1.58-10.54 4.23-1.5 2.08-0.5 8.09 1.58 10.24 6.16 6.34 12.66 13.05 20.35 17.09 28.12 14.75 58.85 19.78 91.06 22.06zm285.22-29.1c-3.4 0-5.88-0.51-8.06 0.08-11.88 3.24-23.77 6.47-35.49 10.24-16.25 5.23-32.29 11.41-49.86 8.91-23.29-3.31-46.54-6.91-69.85-10.08-8.2-1.12-16.53-1.34-24.8-1.98-0.19 0.69-0.38 1.38-0.57 2.08 1.64 1.35 3.12 3 4.96 4.01 12.38 6.81 25.74 10.16 39.74 11.6 15.58 1.6 31.51 2.07 46.57 5.88 37.79 9.57 67.22-6.95 95.71-27.85 0.49-0.36 0.67-1.12 1.65-2.89z"/> <path class="st1" d="m628.4 929.28c1.03 6.53 1.97 13.08 3.12 19.6 3.21 18.22 11.64 34.33 21.68 49.41 18.86 28.34 42.64 52.53 67.17 75.9 12.31 11.73 25.87 22.12 38.52 33.51 20.32 18.29 36.26 40.29 51.44 62.8 16.87 25.02 39.01 43.57 66.3 56.13 22.21 10.22 44.17 21.02 66.72 30.4 18.98 7.9 38.66 14.14 58.05 21.04 1.15 0.41 2.54 0.17 4.64 0.28-3.81-8.92-11.58-12.29-18.45-16.34-14.5-8.53-29.41-16.39-43.91-24.91-10.82-6.36-19.98-14.74-26.91-25.95 3.93 1.68 7.92 3.22 11.78 5.05 30.87 14.62 62.81 26.46 95.39 36.57 23.72 7.36 47.36 15.26 71.53 20.77 20.39 4.65 41.42 7.02 62.3 8.92 20.95 1.91 42.08 2.88 63.1 2.57 15.79-0.23 31.69-2.31 47.28-5.03 21.33-3.73 42.92-7.29 63.48-13.81 22.32-7.07 43.98-16.63 65.24-26.58 26.6-12.46 52.84-25.59 81.59-32.55 4.09-0.99 8.21-1.88 12.31-2.81-11.73 22.98-29.35 40.77-50.41 55.01-48.6 32.86-101.61 56.08-158.43 70.61-1.51 0.39-3 0.9-4.49 1.36-1.54 0.22-3.07 0.46-4.61 0.66-25.94 3.37-51.88 6.73-77.82 10.09-28.41 0.05-56.82 0.09-85.22 0.14-4.46-0.27-8.97-0.17-13.36-0.87-22.91-3.66-45.8-7.52-68.69-11.31-23.96-6.89-48.31-12.65-71.79-20.89-50.45-17.72-97.26-43.21-142.96-70.68-58.32-35.07-110.63-77.74-158.36-126.18-14.03-14.24-29.07-27.5-43.03-41.81-11.83-12.13-21.34-26.1-27.87-41.88-5.7-13.78-8.11-28.01-5.45-42.87 8.11-26.44 26.98-43.29 50.12-56.35z"/> <path class="st2" d="m731.31 834.6c-3.64 1.66-7.13 3.86-10.94 4.89-20.85 5.64-34.07 19.87-43.44 38.33-4.16 8.19-7.09 17.02-11.56 25.02-2.21 3.97-6.62 6.71-10.04 10-0.71-1.36-1.15-2.97-2.16-4.05-18.58-20.03-36.95-40.27-55.93-59.92-26.25-27.18-50.18-55.86-66.31-90.51-8.71-18.72-17.19-37.39-20.87-57.85-2.74-15.26 5.84-27.1 17.8-30.53 3.99-1.14 7.82-2.83 11.73-4.27 5.68 3.9 6.58 9.67 4.88 15.53-13.41 46.26 22.08 114.27 55.05 137.79 21.01 14.99 43.79 20.05 68.84 12.23 16.76-5.24 33.66-8.24 50.88-2.37 4.19 1.42 8.06 3.78 12.07 5.71z"/> <path class="st3" d="m539.6 665.71c-3.9 1.44-7.74 3.12-11.73 4.27-11.96 3.43-20.55 15.27-17.8 30.53 3.68 20.45 12.16 39.13 20.87 57.85 16.13 34.65 40.06 63.33 66.31 90.51 18.98 19.65 37.35 39.89 55.93 59.92 1.01 1.08 1.45 2.69 2.16 4.05-7.11 4.39-14.22 8.79-21.34 13.16-1.84 1.13-3.73 2.18-5.6 3.27-23.14 13.06-42.01 29.92-50.13 56.33-12.53-19.59-13.94-40.07-6.25-61.91 4-11.35 6.89-23.21 8.99-35.07 2.94-16.63-2.43-31.63-12.16-45-10.44-14.36-21.79-28.07-31.93-42.63-19.78-28.41-34.38-59.15-37.2-94.2-0.78-9.71 0.05-19.84 1.98-29.4 4.14-20.44 21.91-25.62 37.9-11.68z"/> <path class="st4" d="m872.41 1018.9c-1.19 7.88-7 11.89-13.42 7.8-13.98-8.91-28.29-17.63-40.9-28.28-26.9-22.72-50.76-48.5-68.57-79.09-5.65-9.71-8.9-20.94-12.35-31.76-2.32-7.27-0.54-14.36 5.73-19.49 6.43-5.26 13.2-3.14 19.63-0.1 19.33 9.15 34.95 23.12 47.52 40.02 19.04 25.6 37.37 51.8 50.94 80.85 4.53 9.69 7.66 20.02 11.42 30.05z"/> <path class="st5" d="m898.1 1052.4c8.89 3.96 17.77 6.79 25.43 11.57 15.18 9.47 30.13 19.44 44.29 30.34 7.96 6.13 12.07 15.58 12.52 25.98 0.4 9.15-4.23 13.66-13.28 12.22-5.91-0.94-12.04-2.42-17.29-5.16-21.63-11.28-38.9-27.31-49.94-49.33-3.73-7.45-6.27-15.43-1.73-25.62z"/> <path class="st6" d="m1152.7 1200.5c-32.21-2.28-62.94-7.31-91.06-22.05-7.69-4.03-14.19-10.74-20.35-17.09-2.08-2.14-3.08-8.16-1.58-10.24 1.92-2.65 6.82-4.01 10.54-4.23 3.33-0.2 7.16 1.3 10.16 3.07 23.78 14 50.8 18.8 76.49 27.38 9.99 3.34 20.04 6.57 29.79 10.52 2.87 1.16 4.82 4.6 7.2 7-2.89 1.43-5.64 3.43-8.7 4.16-4.32 1.01-8.86 1.09-12.49 1.48z"/> <path class="st7" d="m1438 1171.4c-0.99 1.77-1.16 2.54-1.64 2.89-28.49 20.91-57.92 37.42-95.71 27.85-15.06-3.81-30.99-4.28-46.57-5.88-14-1.44-27.37-4.79-39.74-11.6-1.83-1.01-3.31-2.66-4.96-4.01 0.19-0.69 0.38-1.38 0.57-2.08 8.27 0.63 16.6 0.86 24.8 1.98 23.31 3.17 46.56 6.78 69.85 10.08 17.57 2.49 33.61-3.69 49.86-8.91 11.72-3.77 23.61-7 35.49-10.24 2.17-0.59 4.65-0.08 8.05-0.08z"/> <path class="st8" d="m1195 1342c-28.41 0.05-56.81 0.09-85.22 0.14 28.4-0.05 56.81-0.09 85.22-0.14z"/> </svg>