<?xml version='1.0' encoding='utf-8'?>
<svg xmlns="http://www.w3.org/2000/svg" width="99.827mm" height="108.56mm" version="1.1" viewBox="0 0 99.827 108.56"> <g transform="translate(-47.314 -50.683)"> <g transform="matrix(2.5914 2.5914 -2.5914 2.5914 6429.7 -484.03)"> <g transform="matrix(.16308 -.16308 .16308 .16308 -1121.1 1334.7)" stroke="#000"> <path d="m38.796-19.046c-15.342 0.16235-22.773 8.1343-24.141 12.164-1.5473 5.2188-3.8323 12.774 3.16 20.043-1.3811 0.30502-1.2417 2.9251 0 3.608-4.0765 0.01625-3.9911 2.9683-4.0091 5.8797v66.016c0.45839 9.2054 16.546 12.611 24.99 12.294 8.4436 0.31629 24.531-3.089 24.99-12.294v-66.016c-0.01799-2.9114 0.06748-5.8635-4.0091-5.8797 1.2417-0.683 1.3811-3.303 0-3.608 6.9923-7.2685 4.7073-14.824 3.16-20.043-1.3672-4.0293-8.7983-12.001-24.141-12.164z" fill="#e3e2db" stroke-linecap="butt" stroke-linejoin="miter" stroke-width=".26458px"/> <path d="m59.742 13.16c-14.933 6.9823-28.658 5.0463-41.961 0-1.2065-0.2091-1.475 2.9017 0 3.608 12.55 4.1124 25.791 6.2496 41.961 0 1.2157-0.17074 1.6407-3.4939 0-3.608z" fill="#800000" stroke-linecap="butt" stroke-linejoin="miter" stroke-width=".26458px"/> <path d="m16.748-7.5536c13.391 5.2493 27.861 6.3173 44.099 0.53454" fill="none" stroke-linecap="butt" stroke-linejoin="miter" stroke-width=".26458px"/> <ellipse cx="38.796" cy="51.126" rx="24.946" ry="4.1577" fill="#fff" stroke-linecap="round" stroke-linejoin="round" stroke-miterlimit="4" stroke-width=".27565"/> <path d="m13.806 51.66v37.003c0.45839 9.2054 16.546 12.611 24.99 12.294 8.4436 0.31629 24.531-3.089 24.99-12.294v-36.998c-1.6402 2.0684-12.33 3.6162-24.99 3.6184-12.67-0.0026-23.364-1.5531-24.99-3.6236z" fill="#fff" stroke-linecap="butt" stroke-linejoin="miter" stroke-width=".26458px"/> <g transform="translate(.094494 .094494)" fill="#666" stroke-linecap="round" stroke-linejoin="round" stroke-miterlimit="4" stroke-width=".265"> <ellipse cx="38.837" cy="-16.72" rx="1.9844" ry=".66146"/> <ellipse cx="38.837" cy="-7.4598" rx="1.9844" ry=".66146"/> </g> <g fill="#666" stroke-linecap="round" stroke-linejoin="round" stroke-miterlimit="4" stroke-width=".265"> <ellipse cx="30.522" cy="-11.996" rx="1.9844" ry=".66146"/> <ellipse cx="47.342" cy="-11.996" rx="1.9844" ry=".66146"/> </g> </g> <ellipse transform="rotate(-45)" cx="-1731.7" cy="164.41" rx=".22334" ry=".20967" fill="#d8d8d8" fill-opacity=".3595"/> <ellipse transform="rotate(-45)" cx="-1728.1" cy="165.76" rx=".22334" ry=".20967" fill="#d8d8d8" fill-opacity=".3595"/> <ellipse transform="rotate(-45)" cx="-1729.6" cy="167.11" rx=".22334" ry=".20967" fill="#d8d8d8" fill-opacity=".3595"/> <ellipse transform="rotate(-45)" cx="-1728.5" cy="167.15" rx=".22334" ry=".20967" fill="#d8d8d8" fill-opacity=".3595"/> <ellipse transform="rotate(-45)" cx="-1725.5" cy="165.58" rx=".22334" ry=".20967" fill="#d8d8d8" fill-opacity=".3595"/> <ellipse transform="rotate(-45)" cx="-1724.5" cy="164.93" rx=".22334" ry=".20967" fill="#d8d8d8" fill-opacity=".3595"/> <ellipse transform="rotate(-45)" cx="-1726.3" cy="168.72" rx=".22334" ry=".20967" fill="#d8d8d8" fill-opacity=".3595"/> <ellipse transform="rotate(-45)" cx="-1725.2" cy="168.75" rx=".22334" ry=".20967" fill="#d8d8d8" fill-opacity=".3595"/> <ellipse transform="rotate(135)" cx="1724.2" cy="-171.71" rx=".22334" ry=".20967" fill="#d8d8d8" fill-opacity=".3595"/> <ellipse transform="rotate(135)" cx="1725.3" cy="-171.67" rx=".22334" ry=".20967" fill="#d8d8d8" fill-opacity=".3595"/> <ellipse transform="rotate(135)" cx="1725.1" cy="-170.03" rx=".22334" ry=".20967" fill="#d8d8d8" fill-opacity=".3595"/> <ellipse transform="rotate(135)" cx="1726.9" cy="-170.29" rx=".22334" ry=".20967" fill="#d8d8d8" fill-opacity=".3595"/> <ellipse transform="rotate(135)" cx="1729.8" cy="-172.55" rx=".22334" ry=".20967" fill="#d8d8d8" fill-opacity=".3595"/> <ellipse transform="rotate(135)" cx="1731" cy="-172.51" rx=".22334" ry=".20967" fill="#d8d8d8" fill-opacity=".3595"/> <ellipse transform="rotate(135)" cx="1729.1" cy="-168.72" rx=".22334" ry=".20967" fill="#d8d8d8" fill-opacity=".3595"/> <ellipse transform="rotate(135)" cx="1731.4" cy="-168.21" rx=".22334" ry=".20967" fill="#d8d8d8" fill-opacity=".3595"/> <ellipse transform="rotate(-45)" cx="-1733.1" cy="165.11" rx=".22334" ry=".20967" fill="#d8d8d8" fill-opacity=".3595"/> <ellipse transform="rotate(-45)" cx="-1732" cy="165.14" rx=".22334" ry=".20967" fill="#d8d8d8" fill-opacity=".3595"/> <ellipse transform="rotate(-45)" cx="-1731.5" cy="166.49" rx=".22334" ry=".20967" fill="#d8d8d8" fill-opacity=".3595"/> <ellipse transform="rotate(-45)" cx="-1730.4" cy="166.53" rx=".22334" ry=".20967" fill="#d8d8d8" fill-opacity=".3595"/> <ellipse transform="rotate(-45)" cx="-1727.5" cy="164.27" rx=".22334" ry=".20967" fill="#d8d8d8" fill-opacity=".3595"/> <ellipse transform="rotate(-45)" cx="-1726.5" cy="164.85" rx=".22334" ry=".20967" fill="#d8d8d8" fill-opacity=".3595"/> <ellipse transform="rotate(-45)" cx="-1728.2" cy="168.1" rx=".22334" ry=".20967" fill="#d8d8d8" fill-opacity=".3595"/> <ellipse transform="rotate(-45)" cx="-1727.1" cy="168.13" rx=".22334" ry=".20967" fill="#d8d8d8" fill-opacity=".3595"/> <ellipse transform="rotate(135)" cx="1726.1" cy="-171.09" rx=".22334" ry=".20967" fill="#d8d8d8" fill-opacity=".3595"/> <ellipse transform="rotate(135)" cx="1726.8" cy="-171.85" rx=".22334" ry=".20967" fill="#d8d8d8" fill-opacity=".3595"/> <ellipse transform="rotate(135)" cx="1727.7" cy="-169.7" rx=".22334" ry=".20967" fill="#d8d8d8" fill-opacity=".3595"/> <ellipse transform="rotate(135)" cx="1728.8" cy="-169.67" rx=".22334" ry=".20967" fill="#d8d8d8" fill-opacity=".3595"/> <ellipse transform="rotate(135)" cx="1731.7" cy="-171.93" rx=".22334" ry=".20967" fill="#d8d8d8" fill-opacity=".3595"/> <ellipse transform="rotate(135)" cx="1730" cy="-170.87" rx=".22334" ry=".20967" fill="#d8d8d8" fill-opacity=".3595"/> <ellipse transform="rotate(135)" cx="1731.7" cy="-169.67" rx=".22334" ry=".20967" fill="#d8d8d8" fill-opacity=".3595"/> <ellipse transform="rotate(135)" cx="1732.6" cy="-167.59" rx=".22334" ry=".20967" fill="#d8d8d8" fill-opacity=".3595"/> <ellipse transform="matrix(-.70711 .70711 .70711 .70711 0 0)" cx="1722.7" cy="164.05" rx=".22334" ry=".20967" fill="#d8d8d8" fill-opacity=".3595"/> <ellipse transform="matrix(-.70711 .70711 .70711 .70711 0 0)" cx="1726.9" cy="165.91" rx=".22334" ry=".20967" fill="#d8d8d8" fill-opacity=".3595"/> <ellipse transform="matrix(-.70711 .70711 .70711 .70711 0 0)" cx="1725.4" cy="167.26" rx=".22334" ry=".20967" fill="#d8d8d8" fill-opacity=".3595"/> <ellipse transform="matrix(-.70711 .70711 .70711 .70711 0 0)" cx="1726.5" cy="167.3" rx=".22334" ry=".20967" fill="#d8d8d8" fill-opacity=".3595"/> <ellipse transform="matrix(-.70711 .70711 .70711 .70711 0 0)" cx="1729.5" cy="165.73" rx=".22334" ry=".20967" fill="#d8d8d8" fill-opacity=".3595"/> <ellipse transform="matrix(-.70711 .70711 .70711 .70711 0 0)" cx="1730.6" cy="165.07" rx=".22334" ry=".20967" fill="#d8d8d8" fill-opacity=".3595"/> <ellipse transform="matrix(-.70711 .70711 .70711 .70711 0 0)" cx="1732.5" cy="171.09" rx=".22334" ry=".20967" fill="#d8d8d8" fill-opacity=".3595"/> <ellipse transform="matrix(-.70711 .70711 .70711 .70711 0 0)" cx="1729.9" cy="168.9" rx=".22334" ry=".20967" fill="#d8d8d8" fill-opacity=".3595"/> <ellipse transform="matrix(.70711 -.70711 -.70711 -.70711 0 0)" cx="-1730.8" cy="-171.85" rx=".22334" ry=".20967" fill="#d8d8d8" fill-opacity=".3595"/> <ellipse transform="matrix(.70711 -.70711 -.70711 -.70711 0 0)" cx="-1729.7" cy="-171.82" rx=".22334" ry=".20967" fill="#d8d8d8" fill-opacity=".3595"/> <ellipse transform="matrix(.70711 -.70711 -.70711 -.70711 0 0)" cx="-1729.9" cy="-170.18" rx=".22334" ry=".20967" fill="#d8d8d8" fill-opacity=".3595"/> <ellipse transform="matrix(.70711 -.70711 -.70711 -.70711 0 0)" cx="-1728.1" cy="-170.43" rx=".22334" ry=".20967" fill="#d8d8d8" fill-opacity=".3595"/> <ellipse transform="matrix(.70711 -.70711 -.70711 -.70711 0 0)" cx="-1725.2" cy="-172.69" rx=".22334" ry=".20967" fill="#d8d8d8" fill-opacity=".3595"/> <ellipse transform="matrix(.70711 -.70711 -.70711 -.70711 0 0)" cx="-1724.1" cy="-172.66" rx=".22334" ry=".20967" fill="#d8d8d8" fill-opacity=".3595"/> <ellipse transform="matrix(.70711 -.70711 -.70711 -.70711 0 0)" cx="-1727.8" cy="-173.13" rx=".22334" ry=".20967" fill="#d8d8d8" fill-opacity=".3595"/> <ellipse transform="matrix(.70711 -.70711 -.70711 -.70711 0 0)" cx="-1724.7" cy="-168.13" rx=".22334" ry=".20967" fill="#d8d8d8" fill-opacity=".3595"/> <ellipse transform="matrix(-.70711 .70711 .70711 .70711 0 0)" cx="1721.9" cy="165.25" rx=".22334" ry=".20967" fill="#d8d8d8" fill-opacity=".3595"/> <ellipse transform="matrix(-.70711 .70711 .70711 .70711 0 0)" cx="1723" cy="165.29" rx=".22334" ry=".20967" fill="#d8d8d8" fill-opacity=".3595"/> <ellipse transform="matrix(-.70711 .70711 .70711 .70711 0 0)" cx="1723.5" cy="166.64" rx=".22334" ry=".20967" fill="#d8d8d8" fill-opacity=".3595"/> <ellipse transform="matrix(-.70711 .70711 .70711 .70711 0 0)" cx="1724.6" cy="166.68" rx=".22334" ry=".20967" fill="#d8d8d8" fill-opacity=".3595"/> <ellipse transform="matrix(-.70711 .70711 .70711 .70711 0 0)" cx="1729.5" cy="164.49" rx=".22334" ry=".20967" fill="#d8d8d8" fill-opacity=".3595"/> <ellipse transform="matrix(-.70711 .70711 .70711 .70711 0 0)" cx="1728.5" cy="165" rx=".22334" ry=".20967" fill="#d8d8d8" fill-opacity=".3595"/> <ellipse transform="matrix(-.70711 .70711 .70711 .70711 0 0)" cx="1722.6" cy="169.16" rx=".22334" ry=".20967" fill="#d8d8d8" fill-opacity=".3595"/> <ellipse transform="matrix(-.70711 .70711 .70711 .70711 0 0)" cx="1727.5" cy="166.64" rx=".22334" ry=".20967" fill="#d8d8d8" fill-opacity=".3595"/> <ellipse transform="matrix(.70711 -.70711 -.70711 -.70711 0 0)" cx="-1728.9" cy="-171.23" rx=".22334" ry=".20967" fill="#d8d8d8" fill-opacity=".3595"/> <ellipse transform="matrix(.70711 -.70711 -.70711 -.70711 0 0)" cx="-1727.8" cy="-171.2" rx=".22334" ry=".20967" fill="#d8d8d8" fill-opacity=".3595"/> <ellipse transform="matrix(.70711 -.70711 -.70711 -.70711 0 0)" cx="-1726.5" cy="-173.68" rx=".22334" ry=".20967" fill="#d8d8d8" fill-opacity=".3595"/> <ellipse transform="matrix(.70711 -.70711 -.70711 -.70711 0 0)" cx="-1726.2" cy="-169.81" rx=".22334" ry=".20967" fill="#d8d8d8" fill-opacity=".3595"/> <ellipse transform="matrix(.70711 -.70711 -.70711 -.70711 0 0)" cx="-1723.3" cy="-172.07" rx=".22334" ry=".20967" fill="#d8d8d8" fill-opacity=".3595"/> <ellipse transform="matrix(.70711 -.70711 -.70711 -.70711 0 0)" cx="-1725.1" cy="-171.01" rx=".22334" ry=".20967" fill="#d8d8d8" fill-opacity=".3595"/> <ellipse transform="matrix(.70711 -.70711 -.70711 -.70711 0 0)" cx="-1723.3" cy="-169.81" rx=".22334" ry=".20967" fill="#d8d8d8" fill-opacity=".3595"/> <ellipse transform="matrix(.70711 -.70711 -.70711 -.70711 0 0)" cx="-1722.5" cy="-167.73" rx=".22334" ry=".20967" fill="#d8d8d8" fill-opacity=".3595"/> </g> </g> </svg>